<?xml version="1.0"?>
<svg xmlns:rdf="http://www.w3.org/1999/02/22-rdf-syntax-ns#" xmlns="http://www.w3.org/2000/svg" xmlns:cc="http://creativecommons.org/ns#" xmlns:xlink="http://www.w3.org/1999/xlink" xmlns:dc="http://purl.org/dc/elements/1.1/" xmlns:svg="http://www.w3.org/2000/svg" id="svg2" viewBox="0 0 282.55 352.64" version="1.1">
  <defs id="defs4">
    <radialGradient id="radialGradient7481" spreadMethod="repeat" gradientUnits="userSpaceOnUse" cy="637.87" cx="484.54" gradientTransform="matrix(.56255 -.055918 .055658 .55993 -135.99 11.023)" r="105.43">
      <stop id="stop7477" stop-color="#099d08" offset="0"/>
      <stop id="stop7479" stop-color="#092d08" offset="1"/>
    </radialGradient>
    <linearGradient id="linearGradient2918">
      <stop id="stop2920" stop-color="#ffd5d5" offset="0"/>
      <stop id="stop2922" stop-color="#ffd5d5" stop-opacity="0" offset="1"/>
    </linearGradient>
    <linearGradient id="linearGradient3501">
      <stop id="stop3503" stop-color="#efedef" offset="0"/>
      <stop id="stop3505" stop-color="#ff5d00" stop-opacity="0" offset="1"/>
    </linearGradient>
    <radialGradient id="radialGradient8509" gradientUnits="userSpaceOnUse" cy="367.26" cx="240.58" gradientTransform="matrix(.58562 .10986 -.046670 .24947 -18.491 110.07)" r="35.736">
      <stop id="stop3665" stop-color="maroon" offset="0"/>
      <stop id="stop3667" stop-color="maroon" stop-opacity="0" offset="1"/>
    </radialGradient>
    <radialGradient id="radialGradient8512" gradientUnits="userSpaceOnUse" cy="274.81" cx="343.49" gradientTransform="matrix(.66612 0 0 .23438 -61.137 110.79)" r="95.904">
      <stop id="stop3495" stop-color="#ffd5d5" offset="0"/>
      <stop id="stop3497" stop-color="#ffd5d5" stop-opacity="0" offset="1"/>
    </radialGradient>
    <linearGradient id="linearGradient8515" x1="432.46" spreadMethod="reflect" gradientUnits="userSpaceOnUse" y1="251.33" gradientTransform="matrix(.66612 0 0 .61378 -61.137 -8.5507)" x2="471.97" y2="290.79">
      <stop id="stop3485" stop-color="#a00" offset="0"/>
      <stop id="stop3487" stop-color="#7f0000" stop-opacity="0" offset="1"/>
    </linearGradient>
    <radialGradient id="radialGradient8518" xlink:href="#linearGradient3501" gradientUnits="userSpaceOnUse" cy="261.38" cx="473.72" gradientTransform="matrix(.36381 -.13334 .25347 .58714 22.015 64.345)" r="95.726"/>
    <radialGradient id="radialGradient8521" xlink:href="#linearGradient3501" gradientUnits="userSpaceOnUse" cy="397.39" cx="469.7" gradientTransform="matrix(.57943 .30279 -.66612 1.0823 243.23 -333.5)" r="28.831"/>
    <radialGradient id="radialGradient8536" spreadMethod="reflect" gradientUnits="userSpaceOnUse" cy="456.77" cx="310.66" gradientTransform="matrix(.66613 -.44199 .66910 .85616 -366.76 18.044)" r="40.555">
      <stop id="stop3391" stop-color="red" offset="0"/>
      <stop id="stop3393" stop-color="#df0000" stop-opacity="0" offset="1"/>
    </radialGradient>
    <radialGradient id="radialGradient8539" gradientUnits="userSpaceOnUse" cy="432.16" cx="401.57" gradientTransform="matrix(.70511 -.61119 .15821 .15496 -141.19 433.46)" r="66.669">
      <stop id="stop3381" stop-color="maroon" offset="0"/>
      <stop id="stop3383" stop-color="maroon" stop-opacity="0" offset="1"/>
    </radialGradient>
    <radialGradient id="radialGradient8541" spreadMethod="reflect" gradientUnits="userSpaceOnUse" cy="432.16" cx="401.57" gradientTransform="matrix(.70511 -.61119 .15821 .15496 -141.19 433.46)" r="66.669">
      <stop id="stop3371" stop-color="#720000" offset="0"/>
      <stop id="stop3373" stop-opacity="0" offset="1"/>
    </radialGradient>
    <radialGradient id="radialGradient8544" gradientUnits="userSpaceOnUse" cy="375.27" cx="434.36" gradientTransform="matrix(.58601 -.39094 .12689 .16149 -73.958 330.99)" r="68.643">
      <stop id="stop3361" stop-color="#ffd5d5" stop-opacity=".85246" offset="0"/>
      <stop id="stop3363" stop-color="#ffe6d5" stop-opacity="0" offset="1"/>
    </radialGradient>
    <radialGradient id="radialGradient8547" gradientUnits="userSpaceOnUse" cy="241.64" cx="337.81" gradientTransform="matrix(.66612 0 0 .59087 -61.565 -4.0493)" r="39.487">
      <stop id="stop3134" stop-color="#ffd5d5" offset="0"/>
      <stop id="stop3136" stop-color="#ffd5d5" stop-opacity="0" offset="1"/>
    </radialGradient>
    <radialGradient id="radialGradient8550" gradientUnits="userSpaceOnUse" cy="229.49" cx="345.45" gradientTransform="matrix(.48986 .0000022880 -.0000020228 .36767 -.24474 47.928)" r="27.261">
      <stop id="stop3116" stop-color="#500" offset="0"/>
      <stop id="stop3118" stop-color="#500" stop-opacity="0" offset="1"/>
    </radialGradient>
    <linearGradient id="linearGradient8553" x1="336.81" gradientUnits="userSpaceOnUse" y1="225.97" gradientTransform="matrix(.66612 0 0 .61378 -61.137 -8.5507)" x2="315.8" y2="201.13">
      <stop id="stop3106" stop-color="maroon" offset="0"/>
      <stop id="stop3108" stop-color="maroon" stop-opacity="0" offset="1"/>
    </linearGradient>
    <linearGradient id="linearGradient8556" x1="330.64" spreadMethod="reflect" gradientUnits="userSpaceOnUse" y1="249.05" gradientTransform="matrix(.66612 0 0 .61378 -61.137 -8.5507)" x2="374.46" y2="231.42">
      <stop id="stop3063" stop-color="#ffd5d5" offset="0"/>
      <stop id="stop3065" stop-color="#ffd5d5" stop-opacity="0" offset="1"/>
    </linearGradient>
    <radialGradient id="radialGradient8559" gradientUnits="userSpaceOnUse" cy="235.7" cx="276.57" gradientTransform="matrix(.94789 .015272 -.018954 .99881 -134.6 -100.22)" r="32.213">
      <stop id="stop3020" stop-color="#fff" offset="0"/>
      <stop id="stop3022" stop-color="#fff" stop-opacity="0" offset="1"/>
    </radialGradient>
    <linearGradient id="linearGradient8562" x1="287.68" gradientUnits="userSpaceOnUse" y1="241.32" gradientTransform="matrix(.66612 0 0 .61378 -61.137 -8.5507)" x2="244.36" y2="197.24">
      <stop id="stop3010" stop-color="maroon" offset="0"/>
      <stop id="stop3012" stop-color="maroon" stop-opacity="0" offset="1"/>
    </linearGradient>
    <linearGradient id="linearGradient8565" x1="268.39" gradientUnits="userSpaceOnUse" y1="261.52" gradientTransform="matrix(2.2439 .18082 0 .72024 -456.01 -67.849)" x2="273.91" y2="246.69">
      <stop id="stop3230" stop-color="#a00" offset="0"/>
      <stop id="stop3232" stop-color="#a00" stop-opacity="0" offset="1"/>
    </linearGradient>
    <radialGradient id="radialGradient8568" spreadMethod="reflect" gradientUnits="userSpaceOnUse" cy="288.33" cx="233.89" gradientTransform="matrix(-1.1504 -1.7124 .32590 -.18588 281.57 633.8)" r="39.844">
      <stop id="stop2998" stop-color="#790000" offset="0"/>
      <stop id="stop3000" stop-color="#a60000" stop-opacity="0" offset="1"/>
    </radialGradient>
    <radialGradient id="radialGradient8571" xlink:href="#linearGradient2918" spreadMethod="reflect" gradientUnits="userSpaceOnUse" cy="249.43" cx="273.81" gradientTransform="matrix(.3354 .063962 -.047790 .21276 31.482 73.605)" r="114.76"/>
    <radialGradient id="radialGradient8574" gradientUnits="userSpaceOnUse" cy="353.07" cx="373.93" gradientTransform="matrix(.85597 -.095815 .077402 .58707 -161.16 43.944)" r="85.921">
      <stop id="stop3310" stop-color="red" stop-opacity="0" offset="0"/>
      <stop id="stop3312" stop-color="#6e0000" offset="1"/>
    </radialGradient>
    <radialGradient id="radialGradient8577" gradientUnits="userSpaceOnUse" cy="303.99" cx="249.55" gradientTransform="matrix(2.6891 -.21483 1.8574 7.0955 -1120.6 -1917.3)" r="3.4849">
      <stop id="stop3655" stop-color="#ffd5d5" offset="0"/>
      <stop id="stop3657" stop-color="#ffd5d5" stop-opacity="0" offset="1"/>
    </radialGradient>
    <radialGradient id="radialGradient8580" xlink:href="#linearGradient2918" spreadMethod="reflect" gradientUnits="userSpaceOnUse" cy="249.43" cx="273.81" gradientTransform="matrix(.3354 .063962 -.047790 .21276 31.482 75.101)" r="114.76"/>
    <radialGradient id="radialGradient8583" spreadMethod="reflect" gradientUnits="userSpaceOnUse" cy="404.68" cx="151.98" gradientTransform="matrix(.92526 .37668 -.30452 .63508 40.679 -140.51)" r="212.1">
      <stop id="stop3223" stop-color="#fa0000" offset="0"/>
      <stop id="stop3432" stop-color="#f70000" offset=".56"/>
      <stop id="stop3225" stop-color="#b70000" offset="1"/>
    </radialGradient>
    <radialGradient id="radialGradient8585" gradientUnits="userSpaceOnUse" cy="404.93" cx="151.24" gradientTransform="matrix(.92526 .37668 -.30452 .63508 41.436 -140.39)" r="212.1">
      <stop id="stop3426" stop-color="#fa0000" offset="0"/>
      <stop id="stop3428" stop-color="#b70000" stop-opacity=".5" offset="1"/>
    </radialGradient>
  </defs>
  <g id="layer1" transform="translate(-31.174 -64.38)">
    <g id="g8600">
      <path id="path2020" d="m118.79 229.53c-15.781-5.2274-34.967-4.2885-47.081-16.597-16.141-12.561-28.915-28.802-38.229-46.13-5.458-18.499 0.24291-40.395 18.047-51.575 11.864-8.54 27.228-10.414 40.913-14.946 7.1551-8.3911 11.015-27.409 27.013-17.859 16.264 4.7226 33.064-2.2989 49.511 0.18786 13.417-2.5312 17.268-28.607 33.498-12.928 20.416 10.171 41.497 23.754 48.148 45.439 4.7503 11.871 8.1716 24.138 12.023 36.27 15.141 4.6852 30.694-11.363 45.162-2.3582 10.879 9.0208 3.7849 23.803-3.2936 33.021-7.3913 8.2959-8.232 19.655-16.289 27.523-6.1645 4.5701-9.6363 6.6125-12.822 9.0424 1.704 34.586-5.4678 18.847-28.815 50.727-4.8448-3.7973-7.875-3.3186-13.509-4.6412-8.4212 16.442-24.137 2.9459-35.116-3.3956-14.772-6.6395-28.502 6.0405-28.696 18.692 1.564 21.109-5.7859 30.381-22.155 20.506-17.233-9.592-28.372-27.45-30.35-45.769-9.175-11.359 23.713-11.835 7.0478-21.841-1.4075-1.4047-3.0567-2.6622-5.0085-3.3699z" fill-rule="evenodd" stroke="url(#radialGradient8585)" stroke-width=".63942px" fill="url(#radialGradient8583)"/>
      <path id="path2950" opacity=".56593" fill-rule="evenodd" fill="url(#radialGradient8580)" d="m104.91 220.19c-9.83-4.9-22.755-4.86-29.769-14.41-11.228-13.07-30.603-18.65-37.093-35.75-11.095-24.97 9.18-57.16 36.387-58.36 10.098-1.3764 19.445-7.4664 24.142-16.608 4.177-6.218 10.404-13.954 18.879-12 10.945 2.7563 22.07 6.2477 33.498 4.6393 7.4949-0.70678 14.719-3.1041 22.225-3.7312 2.59-3.0225 13.27-10.78 9.4372-1.4173-3.613 8.8329-14.176 9.9032-22.121 7.5089-8.8612-0.1459-17.625 1.5025-26.472 1.6885-8.6772 4.1797-19.824-2.6594-27.433 4.6186-3.1464 10.582-8.3083 20.444-14.863 29.287-3.3112 4.4594-7.4775 15.235-8.8131 16.463 0.47878-12.284 6.0138-23.659 12.389-33.919-16.868 8.9228-35.993 17.009-46.169 34.154-7.875 10.425-3.0852 27.312 8.8082 32.452 14.013 11.761 23.39 29.316 40.836 36.707 3.293 1.6424 5.8294 4.956 6.1336 8.676z"/>
      <path id="path3651" fill-rule="evenodd" fill="url(#radialGradient8577)" d="m126.52 210.44c-13.199-0.87289-20.351-15.353-20.111-27.26-1.5866-8.2473 9.1036-19.371 14.754-9.2617 7.3366 10.561 6.1655 24.369 5.3564 36.522z"/>
      <path id="path3229" fill-rule="evenodd" fill="url(#radialGradient8574)" d="m225.22 216.79c-9.2088 6.6458-19.023 7.5733-26.417 16.465-7.2354 8.0805-20.273 12.235-29.937 16.579-6.4001 3.8009-16.032 6.3176-24.04 3.8404-5.8904-1.8458-8.5351-7.4212-11.328-11.993-5.2437-5.1046-12.095-10.066-12.696-17.636-2.5854-9.0089-5.713-20.4-1.7034-31.239 6.4278 3.7709 1.7947-3.0972-4.2678-16.689 5.3286 5.8398 13.819 11.24 19.431 12.875 11.044 4.8095 17.465 8.1867 32.79 6.4833 12.015-2.6342 24.388-9.7538 36.883-6.9068 6.3093 1.9221 12.376 7.4736 18.925 8.8487 6.7872 3.5911 6.1595 13.708 2.3607 19.373z"/>
      <path id="path2941" opacity=".64835" fill-rule="evenodd" fill="url(#radialGradient8571)" d="m181.09 79.052c-14.636 8.4722-32.12 8.4032-48.517 8.1688-4.2029-3.1916-15.845-8.3963-17.049-0.31546 2.2559 6.0175 11.117 3.5259 16.085 2.2623 7.0059-1.9925 14.345-1.0686 21.528-1.7499 6.5143-0.20799 13.035-0.2151 19.55-0.01361 3.9598-0.94441 8.4014-3.815 8.403-8.3521zm-74.065 7.0009c-8.4372 8.2521-13.879 20.663-25.958 24.34-25.988-1.1637-49.9 25.701-43.576 51.438 3.6596 14.014 14.661 25.246 27.565 31.299 9.2887 7.6972 17.282 18.042 29.412 21.336 1.0544-8.8531-9.9723-10.004-14.599-15.15-5.692-7.0097-11.427-13.98-18.01-20.2-5.098-5.3585-11.327-9.7739-15.662-15.768-6.0567-11.562 0.61487-25.224 9.2945-33.431 9.8986-9.8732 22.859-15.596 34.845-22.42 10.362 0.49742-1.5036 12.029-3.0378 16.553 0.82935 6.9499 4.8138-4.659 6.7788-6.4093 5.9683-9.7184 11.386-20.147 12.949-31.588z"/>
      <path id="path2973" fill-rule="evenodd" fill="url(#radialGradient8568)" d="m91.563 111.46c-18.336 43.778-4.5645 48.988 12.774 67.243 3.2143 7.3228 2.7584 21.104-1.036 32.806-4.5484-4.7165-18.091-8.9775-21.911-18.026-9.7465-10.277-38.612-25.907-31.199-40.154 0.87044 6.4829 20.288 38.224 39.407 25.238-11.496-17.446-29.753-40.65-11.801-60.047 3.5005-3.7341 8.4033-6.4505 13.766-7.0596z"/>
      <path id="path2341" fill-rule="evenodd" fill="url(#linearGradient8565)" d="m211.22 174.27c-24.125-1.7439-48.249-3.8248-72.181-7.3815-6.6626-0.46853-13.449-0.49541-19.908-2.398-4.087-2.8026-0.86491-8.5986-3.8612-12.011-5.5387 0.18921-2.57-9.3901 1.833-5.3936 6.3638 0.90163 12.962-1.7328 19.131 0.88613 6.3968 2.1741 12.408 5.3435 18.805 7.5111 15.258 6.6836 30.502 14.163 47.162 16.574 3.0249 0.65853 6.0427 1.3587 9.0192 2.2125z"/>
      <path id="path3006" fill-rule="evenodd" fill="url(#linearGradient8562)" d="m126.27 100.15c-13.363 2.191-19.84 15.873-23.758 27.383-2.4697 7.7664-8.8251 15.288-5.4622 23.792 0.17813 4.8302 11.406 17.051 1.5369 10.823-10.903-6.9207-14.667-23.703-6.3302-33.981 7.6419-18.656 25.445-35.339 46.593-34.838 10.469 1.6554 22.372 6.9277 31.859-0.7139 4.8954-1.8051 8.0575-11.495 9.1153-12.112 1.7867 10.099-8.1422 19.388-18.001 19.085-9.6822 2.2161-19.344 1.4724-29.1-0.0054-2.162-0.06899-4.341 0.075-6.452 0.56707z"/>
      <path id="path3016" fill-rule="evenodd" fill="url(#radialGradient8559)" d="m107.58 160.66c-22.683-2.5135-11.688-19.584-0.32235-44.288 5.0231-8.6153 15.865-22.088 27.703-14.636-23.318 0.54556-34.166 21.572-1.334 49.647-28.242-19.527-26.498-21.464-17.849-2.2337 0.24835 5.2424 1.8789 17.018-8.1978 11.511z"/>
      <path id="path3059" fill-rule="evenodd" fill="url(#linearGradient8556)" d="m178.59 103.59c-9.8753 1.7516-19.884-2.3037-29.718 0.10235-5.2314 0.65055-10.703 3.0955-12.785 7.8375-3.5049 4.7428-5.9709 10.194-6.2892 15.968-0.82595 4.6108-0.3633 9.7225 2.9391 13.475 2.8593 4.7576 4.4178 10.04 6.0111 15.242 5.1798 3.065 10.724-1.8769 16.196-0.61436 6.1935 0.27564 13.061 0.3091 18.042-3.6502 5.898-3.3414 12.363-6.7751 15.334-12.858 2.8339-4.6298 3.4481-10.111 2.6094-15.302-1.1446-4.4531 4.3492-13.355 9.2382-8.4139 1.1377 4.9089-4.4688 8.1206-4.8909 12.844-1.6233 6.4269-2.049 14.149-8.5291 18.268-5.8669 4.5608-12.649 8.1497-19.951 10.355 5.6592-2.6918 11.513 0.73228 16.82 2.4416 8.6078 2.1113 17.66 1.3468 26.357 3.0436 4.9155 1.3357 12.327-2.2653 14.656 3.6719-0.81395 5.5468-9.3415 2.3983-13.545 2.7231-7.9323-0.53679-15.164-4.4838-23.216-4.1499-4.982-0.12829-9.9454-0.79946-14.733-2.0215-7.661-0.7317-15.392-0.87305-23-2.047-5.1424 0.26972-11.928 2.8728-15.65-1.846-4.0136-4.9221-4.2942-11.338-6.4791-16.974-2.6192-8.5944-3.9888-18.294 0.76696-26.503 3.5982-7.5397 11.253-13.121 19.99-14.777 8.2129-2.1421 17.679-4.0128 25.662-0.22883 1.6219 0.85791 3.0782 2.0049 4.1633 3.4146z"/>
      <path id="path3094" fill-rule="evenodd" fill="url(#linearGradient8553)" d="m191.94 127.2c0.50901-1.5732 1.0678-4.3838 1.0678-7.3794 0-1.6606 0.53392-4.5151 0.53392-6.8874 0-1.9461-2.9549-4.9422-3.7374-5.9035-1.6424-2.0177-4.7382-1.8603-6.407-1.4759-2.5858 0.59566-4.9406 0.49196-7.4748 0.49196h-8.0087c-3.0327 0-5.4604-0.49196-8.5427-0.49196-3.164 0-5.2292 0.83561-8.0087 1.4759-2.2286 0.51338-5.5533 2.1652-6.9409 3.4437-1.6173 1.4902-2.4463 3.238-3.7374 4.4276-2.0302 1.8707-2.1357 4.0843-2.1357 6.8874 0 3.6048 0.82473 3.6677-1.0678 5.4116-1.7915 1.6507-4.1114-4.822-4.2713-5.4116-0.69062-2.5454 0 5.2476 0 7.8714v7.3794c0 2.9447 0.38144 4.3576 1.0678 6.8874 0.82099 3.026 4.9191-0.41975 5.3392-1.9678 0.61461-2.2653 1.0895-4.9994 1.6017-6.8874 0.54111-1.9943 1.7147-4.8437 2.1357-6.3955 0.72603-2.6759 1.5191-3.8595 3.2035-5.4116 2.3147-2.1328 3.1805-2.9306 5.3392-4.9196 1.2818-1.1811 4.863-1.6122 6.407-1.9678 2.602-0.59939 5.3297 0.002 7.4748-0.49196 2.1892-0.50429 5.7378 0.15414 6.407 0 3.4402-0.79246-6.6672-2.311-10.144-2.9518-2.9626-0.54596-6.6606-0.85481-6.9409-0.98392-2.2792-1.05 5.0027-0.90643 7.4748-1.4759 2.3661-0.54505 5.9254 0.0121 8.0088 0.49196 1.9677 0.45328 5.0134 1.0319 6.9409 1.4759 2.4672 0.56834 4.1696 2.858 5.3392 3.9357 2.2619 2.0841 3.1972 2.4483 4.2713 4.4276 1.5314 2.8222 1.5198 4.125 4.8052 6.3955"/>
      <path id="path3112" fill-rule="evenodd" fill="url(#radialGradient8550)" d="m187.13 130.65c-1.3744-0.61191-3.9777-4.1571-5.3392-5.4116-1.7422-1.6053-2.6846-2.4667-4.8052-3.4437-2.1958-1.0116-3.2626-1.8585-5.8731-2.4598-2.2909-0.5277-4.8762-0.49195-7.4748-0.49195-1.7818 0-4.5426 2.2178-5.3392 2.9518-1.6699 1.5387-2.9475 2.3093-4.2713 3.9357-1.3337 1.6385-1.8107 3.3368-2.6696 4.9196-0.97481 1.7964-0.43183 4.8039 0 6.3955 0.49873 1.8382 4.6506 2.0552 6.407 2.4598 3.4176 0.78725 4.9032-0.18061 5.8731-1.9678 0.74606-1.3749-3.2474-3.9762-3.7374-4.4276-1.7593-1.6211 4.6198-1.9678 5.8731-1.9678 3.0873 0 4.3029 1.0422 5.3392 2.9518 0.94805 1.7471 0.53392 4.7423 0.53392 6.8874 0 1.6151-1.3518 2.9831-2.1357 4.4276-0.84607 1.5592 3.2786-2.2445 3.7374-3.9357 0.71637-2.6403-0.53391-4.5249-0.53391-6.8874 0-1.4482-3.0835-3.8251-3.7374-4.4276-1.2839-1.183-3.5943-2.82-3.7374-2.9518-0.65079-0.59965 5.0841-1.1014 6.407-0.49196 2.6645 1.2276 4.5182 3.2551 5.8731 4.9196 1.6279 2 2.0262 3.0401 2.6696 5.4116 0.78638 2.8984 0.64738 3.7266 0 4.9196-1.1965 2.205-0.53392-4.9142-0.53392-7.3794 0-2.8454-0.142-4.6893-1.0678-6.3955-1.7952-3.3082 1.0906-1.7114 2.6696-0.98392 2.7623 1.2726 2.6026 2.6904 5.8731 3.4437z"/>
      <path id="path3208" opacity=".9" fill-rule="evenodd" fill="url(#radialGradient8547)" d="m168.25 107.78c-10.746 5.4435-23.079 11.609-27.271 23.802-0.39671 7.8816 10.751 12.289 8.4289 19.986 8.5412 5.5245 20.28 1.774 28.486-2.654 10.243-3.6411 6.2286-25.223-4.4569-18.336 13.725 16.576-16.544 16.351-20.914-2.5814 0.89794-11.411 15.717-6.1175 22.609-3.7485 13.311 1.5146 9.156-16.984-2.2223-15.865-1.5315-0.33524-3.0914-0.55437-4.6596-0.60245z"/>
      <path id="path3357" fill-rule="evenodd" fill="url(#radialGradient8544)" d="m185.53 240.85c1.6248-0.59596 4.46-3.1256 5.8731-4.4276 1.5823-1.458 3.4343-2.3202 5.8731-3.4437 2.5178-1.16 3.3344-2.5804 5.3392-4.4276 1.7726-1.6333 4.0971-3.3233 6.407-4.9196 2.8303-1.9559 3.5208-2.606 6.407-3.9357 2.7034-1.2455 4.1457-1.8521 5.8731-3.4437 1.7075-1.5733 4.2564-2.938 5.8731-4.4276 1.9203-1.7694 3.704-1.937 5.8731-3.9357 1.6697-1.5385 5.6217-3.024 6.9409-3.9357 1.7243-1.1916 3.1053-1.8774 4.8052-3.4437 1.6632-1.5325 3.1691-1.952 5.3392-2.9518 2.0401-0.93989 4.5692-3.2262 5.8731-4.4276 1.2067-1.1119 5.2145-0.98392 7.4748-0.98392 3.0568 0 5.1369 0.15279 6.9409 0.98392 2.8543 1.315 4.1328 1.4943 3.2035 4.9196-0.68067 2.5087-1.6314 2.979-3.7374 4.9196-1.8913 1.7427-3.3197 2.5668-5.3392 4.4276-2.3786 2.1916-4.8846 3.5168-6.9409 5.4116-1.7443 1.6073-3.9273 2.5473-5.8731 3.4437-1.6879 0.77764-2.8997 3.7265-4.2713 5.4116-1.751 2.1512-4.0806 3.7599-5.3392 4.9196-1.3554 1.2489-3.8213 2.0451-5.3392 3.4437-1.583 1.4586-5.2127 3.3854-7.4748 4.4276-2.3998 1.1056-4.179 2.9092-6.407 3.9357-2.8786 1.3262-4.4313 2.7795-6.9409 3.9357-3.1166 1.4358-3.917 2.2961-7.4748 2.9518-2.4406 0.44976-5.5106 0-8.0087 0-3.0418 0-6.637 0.92793-9.6105 1.4759-2.7628 0.50914-5.6305 3.1531-7.4748 4.4276-2.2305 1.5414 0.27212-4.4467 0.53391-5.4116 0.57259-2.1104 1.0366-2.3159 1.6018-4.9196z"/>
      <path id="path3367" d="m258.68 216.25c-1.5173 0.0145-4.7695 1.4594-6.9409 2.4598-1.821 0.83895-3.0066 2.589-3.7374 3.9357-1.205 2.2207-2.9823 4.2238-4.2713 5.4116-1.4303 1.3179-4.2955 2.225-5.8731 2.9518-2.3615 1.088-3.5124 2.6021-5.3392 3.4437-1.9979 0.92046-3.6664 2.4107-5.8731 3.9357-1.9381 1.3394-4.0359 2.1054-5.8731 2.9518-2.406 1.1085-3.9651 1.6856-5.3392 2.9518-1.3982 1.2883-4.4647 2.3029-5.8731 2.9518-2.337 1.0767-3.873 2.2763-6.407 3.4437-2.5408 1.1706-4.1088 1.3154-6.9409 1.9678-2.6356 0.60711-5.1759 0.9463-7.4748 1.4759-2.3686 0.54563-5.8255-0.11204-7.4748-0.49196-2.4765-0.57047-4.4636-1.6531-5.8731-2.9518-2.2523-2.0753-0.53391 0.45539-0.53391 3.4437 0 3.4186-0.92417 3.6709-2.1357 5.9035-1.0166 1.8734-1.6018 3.1099-1.6018 5.9035 0 2.6048 0.0133 4.8705-0.53391 6.8874-0.37437 1.3798 1.1829-3.6557 1.6018-4.4276 0.70542-1.3 3.3262-2.5728 4.2713-3.4437 2.3132-2.1314 3.5109-2.6014 6.407-3.9357 1.9475-0.89722 4.1072-0.94612 6.407-1.4759 2.1539-0.49616 4.8816-0.59736 7.4748 0 2.2836 0.52605 3.5903 1.4081 5.8731 2.4598 1.767 0.81404 3.7104 3.425 5.8731 4.9196 1.6234 1.1218 0.69427-3.7392 1.6018-5.4116 0.90048-1.6594 2.8476 2.6238 4.2713 3.9357 2.2856 2.106 3.7284 3.9315 5.8731 4.9196 3.0576 1.4087 1.38-0.40854 0-2.9518-1.118-2.0602-2.2217-4.2528-2.6696-5.9035-0.69567-2.564 1.1614-4.5139 2.6696-5.9035 1.8344-1.6902 6.0713 1.1665 6.407 1.4759 2.3808 2.1938 3.957 3.0575 5.8731 5.4116 2.1142 2.5975-0.67708-3.2156-1.0678-3.9357-1.0627-1.9584-1.0678-4.6793-1.0678-6.8874 0-2.7633 0.0615-5.5249 1.0678-7.3794 0.917-1.6899 2.8478-3.6079 4.8052-5.4116 1.2401-1.1427 4.3817-2.0695 5.8731-3.4437 1.7027-1.5689 3.9573-2.1704 5.3392-3.4437 1.6544-1.5244 2.6616-4.3982 3.2035-6.3955 0.52854-1.948 2.7352-3.5042 3.7374-4.4276 1.8106-1.6683 2.8977-2.8102 4.2713-4.9196z" fill-rule="evenodd" stroke="url(#radialGradient8541)" stroke-width=".63942px" fill="url(#radialGradient8539)"/>
      <path id="path3387" fill-rule="evenodd" fill="url(#radialGradient8536)" d="m120.39 249.21c-5.2132 9.055 1.7994 17.9 6.4538 25.199 1.1118 4.2059 6.7566 15.645 9.1992 12.241-2.0551-7.9474-2.9356-21.38 5.8164-24.867 1.2886 7.1312-0.0607 14.74 0.3976 22.075-1.8609 4.0307 2.811 14.937 4.6062 6.3224-1.1558-6.5753-2.4998-21.426 7.7932-19.769 7.8201 4.7214 6.1062 15.545 6.1648 23.377 1.7242-1.9569 0.41778-19.56 0.824-7.1987-1.4543 3.8204 1.047 18.175 2.6454 8.4959 2.3856-8.7715 0.28916-18.176 3.9075-26.603 3.1584-5.4655 6.9036-19.204-4.1706-14.776-12.605 4.9029-26.481-1.4967-36.019-9.8755-3.7026-1.063-4.3115 4.8624-7.6187 5.38z"/>
      <path id="path3401" opacity=".2" fill-rule="evenodd" fill="url(#radialGradient8521)" d="m264.57 210.75c-2.4027 3.1984-6.1746 5.4141-8.7637 8.3436 0.53413 5.3269-0.21081 10.691-1.5196 15.901-2.5265 6.7701-11.004 8.1339-17.194 10.664-3.2668 1.9769-3.2608 6.6394-2.3731 9.8396-0.36418 2.6431 3.8115 1.6538 5.3914 2.8195 3.2874 0.74518 4.4592 4.1315 4.767 6.579 1.2802-5.9723 9.5664-6.7614 12.448-11.719-0.6405-3.022-1.3643-7.3087 2.4772-8.8423 4.3562-1.204 7.9044-5.2986 6.3906-9.5903 0.0933-5.181 1.2037-10.3 0.72858-15.555-0.12933-2.8557 0.97764-5.7998-1.3322-8.2093-0.27113-0.27191-0.69839-1.3216-1.02-0.23016z"/>
      <path id="path3406" opacity=".2" fill-rule="evenodd" fill="url(#radialGradient8521)" d="m264.88 209.5c-2.76 3.387-6.5724 6.0491-9.638 9.1875-0.0171 3.6746 0.25234 7.4592-0.64455 11.084 0.24102 5.8266-4.1532 10.921-10.091 12.487-3.4734 1.8796-9.5652 1.657-10.331 6.2359-1.0595 2.7942-0.76878 6.2507 0.41632 8.8614 3.5896 1.1206 9.1534 1.7082 9.2028 6.2755 0.49255 2.1231 1.1879 5.323 1.7466 1.4351 1.2276-5.9601 10.154-6.6155 12.49-11.93-0.54806-2.7388-1.4912-6.8094 2.0608-8.2477 4.6234-1.3246 8.2994-5.605 6.7653-10.185 0.20173-5.3532 1.196-10.681 0.74938-16.131 0.0484-2.8038 0.80573-5.5552-1.4363-7.9024-0.30149-0.38334-0.74537-1.143-1.2906-1.17z"/>
      <path id="path3411" opacity=".2" fill-rule="evenodd" fill="url(#radialGradient8521)" d="m268.29 216.74v7.3794c0 2.35-0.0983 5.2819-0.53391 6.8874-0.58207 2.1453 0 5.155 0 7.3794 0 1.734-2.3758 4.157-3.2035 4.9196-1.5271 1.4071-4.0005 1.7183-5.3392 2.9518-1.7028 1.569-1.0239 4.0975-0.53392 5.9035 0.64051 2.3607-2.7276 4.4677-4.8052 5.9035-2.478 1.7125-5.0058 3.1365-6.407 4.4277-0.904 0.83296-1.7821 4.6004-2.1357 5.9035-0.60122 2.2159-2.0684-4.1796-2.6696-6.3955-0.57813-2.1308-4.2403-2.9446-6.407-3.4437-3.5349-0.81427-2.3573-1.309-3.2035-4.4276-0.85953-3.1679 0.71503-6.7292 1.6017-8.3633 0.96027-1.7696 12.061-4.2256 14.416-6.3955 2.519-2.321 3.3991-2.6888 4.2713-5.9035 0.6645-2.4491 0.46812-4.6771 1.0678-6.8874 0.58205-2.1453 0-5.155 0-7.3794 0-1.6603 3.3743-3.6011 4.2713-4.4276 2.222-2.0474 3.992-3.7565 5.3392-5.4116 1.8212-2.2374 4.1066 3.6321 4.2713 3.9357 0.55714 1.0267 0 2.2958 0 3.4437z"/>
      <path id="path3414" opacity=".2" fill-rule="evenodd" fill="url(#radialGradient8521)" d="m264.63 208.24c-3.1093 2.1194-5.1511 5.6642-8.5139 7.6722-4.4536 2.4847-1.0532 7.6588-2.5604 11.393-0.39812 4.314-0.78081 9.2004-5.2041 11.815-4.3223 2.8886-10.52 2.9556-14.322 6.3872-2.2828 3.8224-2.506 8.76-0.54121 12.621 3.0084 1.8836 9.0155 1.2174 8.9739 5.8152 0.91874 1.5031 0.4458 5.5792 2.9956 5.4246 1.669-2.6726 1.0488-6.8549 4.9494-8.2473 3.0538-2.5808 9.1029-4.3962 8.9768-8.8618-1.0846-2.5439-0.91136-6.2104 2.7061-6.8283 4.4876-1.702 7.5724-6.3069 6.1408-10.818 0.40558-5.6863 1.1092-11.455 0.74938-17.243 0.76709-3.2232-0.42252-7.054-3.4139-9.0149-0.2923-0.10865-0.62101-0.16738-0.93673-0.11509z"/>
      <path id="path3419" opacity=".2" fill-rule="evenodd" fill="url(#radialGradient8521)" d="m264.76 207.61c-14.061 4.6781-8.9379 22.334-16.791 30.4-11.614 2.7186-23.815 14.443-9.8927 23.432 7.0403 12.457 15.923-2.2634 21.262-8.6913 4.4276-8.7666 13.098-17.049 10.204-28.239-0.54183-5.5753 2.6196-14.645-4.7824-16.901z"/>
      <path id="path3476" opacity=".66484" fill-rule="evenodd" fill="url(#radialGradient8518)" d="m192.27 69.588c-9.7531 0.30401-11.576 15.905-3.0011 19.551 8.8626 5.3172 16.851 12.026 23.339 20.084 6.2497 7.1598 13.516 13.571 18.817 21.476 9.6976 17.272 8.4576 38.555 1.9043 56.687-1.5109 5.1548-7.2329 19.086 3.2338 15.919 5.5767-4.9723 6.0571-13.637 11.378-19.568 5.099-8.1104 11.338-16.563 20.526-20.154 8.32-1.4246 17.143 0.67983 25.137-2.6567 6.045 6.0671 0.68012 14.544-2.2746 20.74-3.5374 6.9168-9.37 12.256-13.486 18.781 17.018-0.3564 33.52-15.279 32.705-32.846 2.9846-8.3987-2.2697-20.286-12.048-20.403-12.963-0.77552-24.078 7.3168-36.517 9.413-4.1991-13.579-11.083-26.296-13.806-40.321-7.7017-18.884-25.01-31.143-41.102-42.476-4.4372-2.6699-9.5622-4.5253-14.806-4.2257z"/>
      <path id="path3481" fill-rule="evenodd" fill="url(#linearGradient8515)" d="m235.08 191.16c-2.2016-9.633 3.0091-21.87-5.8758-29.22-9.0586-8.6204-22.795-12.803-27.894-25.131-5.1379-7.6534-2.4629-16.85-2.0854-25.304 1.0085-10.539-15.066-12.82-13.42-23.576 3.5622-7.9592 14.382-4.6035 19.884-0.53643 9.669 7.3613 15.955 18.102 23.431 27.486 8.7061 11.845 15.292 25.771 15.647 40.695 1.3067 10.184 7.2938 21.943-0.0481 31.205-7.2132 5.1385 3.6919 5.6049 4.5119-0.0269 3.9862-5.6469 4.8189-13.445 11.309-17.138 3.7457-5.1654 18.703-5.8526 8.6311 1.5817-4.5346 4.1293-10.662 12.284-4.7785 17.832 3.203 3.1179 13.803 2.9183 13.174 2.3519-10.567-2.4982-22.81-1.9965-31.076 5.9048-2.9769 3.1631-10.098 14.573-10.593 3.9549 0.46918-3.1975 1.469-7.3367-0.81613-10.078z"/>
      <path id="path3491" fill-rule="evenodd" fill="url(#radialGradient8512)" d="m234.07 207c4.3469-4.1351 2.2588-7.9473 0-12.11-2.8817-5.3106-1.9618-6.0273-7.0769-8.3838-4.1028-1.8902-6.0069-3.699-10.11-5.5892-4.3184-1.9895-5.638-3.3947-11.121-4.6577-4.6335-1.0674-8.9458-2.7946-14.154-2.7946-4.3254 0-9.0938-1.8631-14.154-1.8631-3.3956 0-10.706-1.0689-14.154-1.8631-5.0395-1.1609-10.856-1.8631-16.176-1.8631-4.1275 0-8.939-1.8263-13.143-2.7946-4.4086-1.0155-10.594 0-15.165 0-3.197 0-6.2393-1.4772-9.0988-2.7946-3.6792-1.6951 5.2372 5.9252 7.0769 9.3154 2.0838 3.8402 3.2798 6.7483 7.0769 10.247 3.1888 2.9382 6.8261 4.5421 11.121 6.5208 3.6876 1.6989 7.7771 1.7915 12.132 2.7946 4.9403 1.138 10.898-1.1132 14.154-1.8631 4.6455-1.0701 8.397-1.9343 12.132-2.7946 4.1393-0.95351 8.6262-1.8631 13.143-1.8631h15.165c5.1689 0 8.2403 3.3306 11.121 4.6577 4.5669 2.104 6.1401 3.7946 9.0988 6.5208 3.0972 2.8538 7.0954 4.4376 10.11 6.5208 1.4518 1.0033 1.348 3.1051 2.022 4.6577z"/>
      <path id="path3661" fill-rule="evenodd" fill="url(#radialGradient8509)" d="m124.26 231.44c-1.5045-12.928-45.7-25.287-36.818-8.3508 12.138 3.1914 25.785 2.4032 36.818 8.3508z"/>
      <path id="path7361" fill="url(#radialGradient7481)" d="m230.06 415.35c0-0.92261-1.4435-3.2931-3.2078-5.2677-2.7232-3.0478-3.9612-3.5766-8.1939-3.5004-2.7424 0.0494-9.0548 1.3962-14.028 2.9928-11.389 3.6568-13.105 3.6407-18.87-0.17618-3.7684-2.4952-6.1594-3.1552-12.125-3.3471-4.0873-0.1315-7.8307-0.25865-8.3188-0.28255-2.2667-0.11101 1.9171-4.5868 6.2367-6.6719 5.6928-2.748 9.1793-2.9737 28.102-1.8198 7.8309 0.47754 15.548 0.53954 17.148 0.13779 4.3274-1.0861 9.8658-6.2017 9.8658-9.1126 0-1.3913-4.5836-16.731-10.186-34.088-8.4041-26.038-14.792-48.679-17.512-62.074-0.2525-1.2432-2.2093-3.2026-4.3486-4.3542-2.1392-1.1516-5.4226-4.4574-7.2964-7.3463s-5.7548-6.7342-8.6244-8.5451-5.0432-3.8155-4.8301-4.4545c0.21302-0.63906 2.2699-2.6856 4.5708-4.5479 3.3227-2.6893 5.5572-3.4854 10.86-3.8689 6.3759-0.46119 7.1408-0.21489 16.996 5.4732 12.697 7.3279 18.275 8.0334 23.552 2.9788l3.3314-3.1911 3.9891 3.5025c6.0609 5.3216 14.094 17.83 17.108 26.639 4.3605 12.745 4.857 26.312 0.87283 23.85-0.63521-0.39259-3.9494-4.9079-7.3649-10.034-8.7253-13.095-24.56-29.406-28.065-28.91-2.4936 0.35295-2.6373 0.78695-2.305 6.9621 0.3212 5.9699 0.12328 6.6461-2.1167 7.2319-2.3044 0.60261-2.4234 1.1112-1.7643 7.5418 0.94371 9.2081 5.338 27.289 11.094 45.648 3.6048 11.497 5.122 14.939 6.4712 14.679 0.96932-0.18667 3.437-3.7664 5.4838-7.9548 3.8022-7.7808 5.9218-9.6069 5.888-5.0725-0.028 3.7423-3.9712 20.911-6.2565 27.241-1.8069 5.0045-1.8521 6.7396-0.51695 19.835 1.196 11.73 1.1966 14.856 0.003 17.12-2.2759 4.316-5.6426 5.9789-5.6426 2.787zm-181.68-171.99c-2.2211-0.89575-1.6543-3.5632 1.0666-5.0193 1.3636-0.72979 5.5069-1.284 9.2072-1.2315 7.775 0.11025 12.325-1.8347 19.959-8.5323 8.2269-7.2175 8.8798-7.3953 19.489-5.3064 20.566 4.0496 33.803 9.7737 33.088 14.504-0.90515 5.9922-17.07 6.8323-31.66 3.2919-7.4458-1.8067-9.0325-1.8045-27.422 0.0382-10.736 1.0758-20.148 2.1514-20.917 2.3903-0.76882 0.2389-2.0336 0.17798-2.8106-0.13538z"/>
    </g>
  </g>
  <metadata>
    <rdf:RDF>
      <cc:Work>
        <dc:format>image/svg+xml</dc:format>
        <dc:type rdf:resource="http://purl.org/dc/dcmitype/StillImage"/>
        <cc:license rdf:resource="http://creativecommons.org/licenses/publicdomain/"/>
        <dc:publisher>
          <cc:Agent rdf:about="http://openclipart.org/">
            <dc:title>Openclipart</dc:title>
          </cc:Agent>
        </dc:publisher>
        <dc:title>red rose</dc:title>
        <dc:date>2006-10-23T08:30:28</dc:date>
        <dc:description>an other red rose. My Opera render better then my Firefox this image; haven't ideea why.</dc:description>
        <dc:source>http://openclipart.org/detail/846/red-rose-by-tomas_arad</dc:source>
        <dc:creator>
          <cc:Agent>
            <dc:title>tomas_arad</dc:title>
          </cc:Agent>
        </dc:creator>
        <dc:subject>
          <rdf:Bag>
            <rdf:li>clip art</rdf:li>
            <rdf:li>clipart</rdf:li>
            <rdf:li>flower</rdf:li>
            <rdf:li>image</rdf:li>
            <rdf:li>love</rdf:li>
            <rdf:li>media</rdf:li>
            <rdf:li>nature</rdf:li>
            <rdf:li>plant</rdf:li>
            <rdf:li>png</rdf:li>
            <rdf:li>public domain</rdf:li>
            <rdf:li>red</rdf:li>
            <rdf:li>rose</rdf:li>
            <rdf:li>svg</rdf:li>
            <rdf:li>trandafir</rdf:li>
            <rdf:li>valentine</rdf:li>
          </rdf:Bag>
        </dc:subject>
      </cc:Work>
      <cc:License rdf:about="http://creativecommons.org/licenses/publicdomain/">
        <cc:permits rdf:resource="http://creativecommons.org/ns#Reproduction"/>
        <cc:permits rdf:resource="http://creativecommons.org/ns#Distribution"/>
        <cc:permits rdf:resource="http://creativecommons.org/ns#DerivativeWorks"/>
      </cc:License>
    </rdf:RDF>
  </metadata>
</svg>
